<?xml version="1.0" encoding="UTF-8"?>
<svg xmlns="http://www.w3.org/2000/svg" width="1249" height="548.934" viewBox="0 0 1249 548.934"><g id="Group_3" data-name="Group 3" transform="translate(2839 -14.533)"><g id="Group_1" data-name="Group 1"><ellipse id="Ellipse_1" data-name="Ellipse 1" cx="614.892" cy="264.78" rx="614.892" ry="264.78" transform="translate(-2829.392 24.22)" fill="#f3ec19"/><path id="Path_1" data-name="Path 1" d="M-2214.5,563.467c-165.514,0-321.263-27.819-438.57-78.329C-2772.966,433.505-2839,363.848-2839,289s66.034-144.505,185.93-196.138c117.307-50.51,273.056-78.329,438.57-78.329s321.263,27.819,438.57,78.329C-1656.034,144.495-1590,214.152-1590,289s-66.034,144.505-185.93,196.138C-1893.237,535.648-2048.986,563.467-2214.5,563.467Zm0-529.56c-162.974,0-316.047,27.264-431.02,76.771C-2757.9,159.069-2819.785,222.4-2819.785,289s61.887,129.931,174.265,178.322c114.973,49.507,268.046,76.771,431.02,76.771s316.047-27.264,431.02-76.771C-1671.1,418.931-1609.215,355.6-1609.215,289S-1671.1,159.069-1783.48,110.678C-1898.453,61.171-2051.526,33.907-2214.5,33.907Z"/></g><path id="Path_2" data-name="Path 2" d="M-2318.687,260.713l-46.024,124.921h28.553a71.513,71.513,0,0,0,49.152-19.555c20.488-19.381,51.805-47.548,56-47.548,6.575,0-20.2,43.9-13.625,57.054S-2211.38,387-2211.38,387h65.278a54.52,54.52,0,0,0,32.583-10.806l24.949-18.593-88.582.887s11.48-29.513,20.506-55.579,7.422-46.912-4.871-46.912c-11.121,0-23.95-.883-36.884,5.557-37.574,18.71-76.03,60.455-76.03,60.455l21.491-61.293Z" fill="#010003"/><g id="Group_2" data-name="Group 2"><ellipse id="Ellipse_2" data-name="Ellipse 2" cx="48.64" cy="44.297" rx="48.64" ry="44.297" transform="translate(-2071.186 139.606)" fill="#010003"/><path id="Path_3" data-name="Path 3" d="M-2067.712,261.206l65.977-.493-34.709,97.772h84.221s-25.158,28.886-46.785,28.886h-83.361c-6.189,0-21.158-3.743-21.462-23.946C-2104.192,339.377-2067.712,261.206-2067.712,261.206Z" fill="#010003"/></g><path id="Path_4" data-name="Path 4" d="M-1817.565,358.485s45.574-17.371,45.574-50.011c0-26.423-18.437-47.761-39.822-47.761h-47.872l14.008-44.286h-65.748l-82,241.075h65.748l58.622-167.669c10.536,1.406,24.207,5.4,28.906,14.8,3.474,6.949,3.1,21.593-3.475,34.743-5.378,10.756-29.264,19.612-37.15,23.113a4.371,4.371,0,0,0-2.581,4.5c.711,6.122,5.433,20.383,17.952,20.383h115.764a35.121,35.121,0,0,0,34.563-28.886h-102.491Z" fill="#010003"/><path id="Path_5" data-name="Path 5" d="M-2361.854,126.117h-74.131c-27.794,0-78.171,20.438-78.171,58.655s8.686,52.114,19.109,79.908,24.32,57.326-3.475,83.383c-17.6,16.5-67.88,27.046-100.753,13.9s-38.217-31.269-31.269-50.377c3.755-10.325,30.893-20.846,53.663-20.846h55.777l-15.635-31.268s-53.224-2.841-97.279,1.737c-26.141,2.716-76.434,14.377-76.434,56.7,0,54.479,76.208,78.8,135.5,78.8,88.593,0,126.672-18.883,151.13-46.9,34.428-39.441,8.686-88.594-8.685-133.76-17.975-46.734,1.737-57.325,10.422-57.325h18.975a39.78,39.78,0,0,0-1.6,11.183c0,24.4,22.165,44.188,49.508,44.188S-2305.7,194.3-2305.7,169.9-2328.282,126.117-2361.854,126.117Z" fill="#010003"/></g></svg>